<svg width="130" height="48" viewBox="0 0 130 48" fill="none" xmlns="http://www.w3.org/2000/svg">
<path fill-rule="evenodd" clip-rule="evenodd" d="M121.982 0H7.94089C1.12709 0 0 2.59765 0 8.78118V39.2894C0 45.4588 2.33103 48 7.92808 48H121.982C127.592 48 130 45.4447 130 39.2753V8.78118C130 2.59765 127.592 0 121.982 0Z" fill="#1E1D1D"/>
<path fill-rule="evenodd" clip-rule="evenodd" d="M33.8897 29.8729C33.2365 31.4682 32.9163 32.1882 32.0838 33.5999C30.9055 35.5764 29.2532 38.0329 27.1912 38.047C25.3596 38.0611 24.8985 36.7341 22.4138 36.7482C19.9419 36.7623 19.4168 38.0611 17.598 38.047C15.5488 38.0329 13.9734 35.8023 12.7951 33.8258C9.50346 28.3058 9.15765 21.8258 11.1941 18.3811C12.6414 15.9388 14.9084 14.4988 17.0473 14.4988C19.2247 14.4988 20.5951 15.8117 22.3882 15.8117C24.1301 15.8117 25.1931 14.4988 27.7163 14.4988C29.6247 14.4988 31.6355 15.6423 33.07 17.6188C28.3695 20.4847 29.138 27.8964 33.8897 29.8729Z" fill="white"/>
<path fill-rule="evenodd" clip-rule="evenodd" d="M25.8207 12.3248C26.7301 11.026 27.4345 9.20484 27.1783 7.34131C25.6798 7.45425 23.9379 8.49896 22.9133 9.86837C21.9911 11.1107 21.2227 12.946 21.5173 14.739C23.1439 14.7813 24.8345 13.7084 25.8207 12.3248Z" fill="white"/>
<path fill-rule="evenodd" clip-rule="evenodd" d="M118.396 32.4708H111.787C111.813 33.459 112.133 34.3202 112.748 34.899C113.299 35.4072 114.029 35.6472 114.912 35.6472C115.899 35.6472 116.782 35.4637 117.589 35.1108L117.935 36.7908C117 37.2425 115.886 37.4543 114.605 37.4543C113.068 37.4543 111.864 36.9602 110.98 35.9578C110.109 34.9555 109.661 33.6284 109.661 31.9484C109.661 30.2966 110.071 28.9272 110.891 27.8261C111.749 26.6543 112.914 26.0755 114.362 26.0755C115.796 26.0755 116.872 26.6543 117.602 27.8261C118.191 28.7578 118.486 29.9578 118.486 31.3131C118.473 31.7508 118.447 32.1884 118.396 32.4708ZM108.995 28.4613C108.867 28.419 108.521 28.4049 108.278 28.4049C107.497 28.4049 106.895 28.7296 106.472 29.3649C106.101 29.9296 105.908 30.6496 105.908 31.5249V37.1296H103.731V29.7602C103.731 28.5037 103.68 27.3884 103.641 26.259H105.563L105.639 28.5178H105.703C105.934 27.8119 106.305 27.1766 106.805 26.739C107.292 26.3437 107.842 26.1319 108.419 26.1319C108.624 26.1319 108.854 26.1178 108.982 26.1461V28.4613H108.995ZM101.029 35.8449C100.119 36.946 98.9025 37.5108 97.3912 37.5108C95.9311 37.5108 94.7656 36.9743 93.9074 35.9155C93.0493 34.8566 92.6138 33.5013 92.6138 31.8919C92.6138 30.1978 93.0621 28.8143 93.9459 27.7272C94.8424 26.6402 96.0335 26.1037 97.5449 26.1037C99.005 26.1037 100.17 26.6261 101.054 27.699C101.9 28.7296 102.322 30.0708 102.322 31.6943C102.335 33.3884 101.9 34.7578 101.029 35.8449ZM91.9606 28.2355H89.6552V33.459C89.6552 34.8143 90.0395 35.4778 90.8976 35.4778C91.2946 35.4778 91.5892 35.4496 91.8454 35.3649L91.8966 37.2002C91.4611 37.3837 90.8848 37.4684 90.1803 37.4684C89.3094 37.4684 88.605 37.1861 88.1183 36.5931C87.6188 36.0143 87.3626 35.0261 87.3626 33.6425V28.2355H85.9537V26.259H87.3626V24.3249L89.668 23.6049V26.259H91.9734V28.2355H91.9606ZM84.2119 36.1555C83.3153 37.0449 82.0601 37.4825 80.4592 37.4825C78.9734 37.4825 77.7951 37.1719 76.8986 36.5366L77.4109 34.5178C78.3715 35.139 79.4345 35.4637 80.5872 35.4637C81.4197 35.4637 82.0601 35.2519 82.534 34.8425C82.9951 34.4331 83.2257 33.8825 83.2257 33.1766C83.2257 32.5696 83.0335 32.0472 82.6621 31.6237C82.2779 31.2002 81.6503 30.819 80.7665 30.4519C78.3587 29.4637 77.1547 28.0237 77.1547 26.1178C77.1547 24.8755 77.5774 23.8449 78.4227 23.0543C79.268 22.2637 80.3951 21.8684 81.804 21.8684C83.0592 21.8684 84.0966 22.1084 84.9291 22.5884L84.3784 24.5649C83.5971 24.099 82.7261 23.8731 81.7399 23.8731C80.9587 23.8731 80.3567 24.0849 79.9212 24.4943C79.5498 24.8755 79.3705 25.3272 79.3705 25.8637C79.3705 26.4566 79.5754 26.9508 79.9981 27.3461C80.3695 27.699 81.0355 28.0943 81.9961 28.5178C83.1872 29.0402 84.0454 29.6613 84.6089 30.3672C85.1596 31.0731 85.4414 31.9484 85.4414 32.9931C85.4286 34.2919 85.0188 35.3508 84.2119 36.1555ZM71.4808 36.0708C70.6611 37.0308 69.6365 37.5108 68.4197 37.5108C67.1133 37.5108 66.2296 36.9884 65.5892 35.9578V41.7884H63.4119V29.9155C63.4119 28.7437 63.3734 27.6708 63.3222 26.259H65.2562L65.3843 28.0943H65.4227C66.1655 26.8237 67.2798 26.1178 68.7656 26.1178C69.9311 26.1178 70.9173 26.6119 71.6986 27.6425C72.4798 28.659 72.8769 30.0002 72.8769 31.6661C72.8513 33.5296 72.403 34.9837 71.4808 36.0708ZM60.5813 36.0708C59.7616 37.0308 58.737 37.5108 57.5202 37.5108C56.201 37.5108 55.3301 36.9884 54.6897 35.9578V41.7884H52.5123V29.9155C52.5123 28.7437 52.4611 27.6708 52.4099 26.259H54.3439L54.4719 28.0943H54.5104C55.2532 26.8237 56.3675 26.1178 57.866 26.1178C59.0316 26.1178 60.005 26.6119 60.799 27.6425C61.5803 28.659 61.9774 30.0002 61.9774 31.6661C61.9646 33.5296 61.5035 34.9837 60.5813 36.0708ZM48.7981 37.1296L47.5173 32.7531H43.0345L41.8049 37.1296H39.5251L43.9439 22.0237H46.6848L51.1419 37.1296H48.7981ZM114.182 27.7555C113.465 27.7555 112.876 28.1649 112.428 28.8143C112.056 29.3366 111.838 29.9155 111.774 30.7625H116.36C116.372 29.9155 116.232 29.3508 115.937 28.8284C115.566 28.1649 114.976 27.7555 114.182 27.7555ZM45.2631 24.1413H45.2247C45.0838 24.8472 44.866 25.7931 44.5715 27.0496L43.4316 31.059H47.1202L45.9675 27.0496C45.8394 26.6402 45.5961 25.5531 45.2631 24.1413ZM68.0355 28.0378C67.4848 28.0378 66.9981 28.2355 66.5626 28.6308C66.1143 29.0402 65.8197 29.5484 65.6917 30.1978C65.6276 30.4943 65.5892 30.7484 65.5892 30.9461V32.7531C65.5892 33.5437 65.8197 34.2213 66.2552 34.7719C66.6907 35.3084 67.2798 35.5908 67.9843 35.5908C68.8168 35.5908 69.47 35.2378 69.9311 34.5319C70.3922 33.8261 70.6227 32.8943 70.6227 31.7366C70.6227 30.6778 70.405 29.8025 69.9695 29.1108C69.4828 28.4049 68.8424 28.0378 68.0355 28.0378ZM97.468 27.8825C96.5843 27.8825 95.9183 28.3202 95.4572 29.1813C95.0601 29.9013 94.868 30.7625 94.868 31.8072C94.868 32.8096 95.0601 33.6708 95.4572 34.3908C95.9311 35.2519 96.5971 35.6896 97.4552 35.6896C98.2877 35.6896 98.9537 35.2519 99.4276 34.3625C99.8375 33.6425 100.042 32.7672 100.042 31.7649C100.042 30.7625 99.8503 29.9013 99.4532 29.1813C98.9922 28.3061 98.3262 27.8825 97.468 27.8825ZM57.136 28.0378C56.5981 28.0378 56.0986 28.2355 55.6631 28.6308C55.2148 29.0402 54.933 29.5484 54.7921 30.1978C54.7281 30.4943 54.6897 30.7484 54.6897 30.9461V32.7531C54.6897 33.5437 54.9074 34.2213 55.3557 34.7719C55.7912 35.3084 56.3675 35.5908 57.0848 35.5908C57.9173 35.5908 58.5705 35.2378 59.0316 34.5319C59.4926 33.8261 59.7232 32.8943 59.7232 31.7366C59.7232 30.6778 59.5054 29.8025 59.07 29.1108C58.5833 28.4049 57.9429 28.0378 57.136 28.0378Z" fill="white"/>
<path d="M45.8268 18.0411C45.5322 18.2105 44.8918 18.3799 44.0721 18.3799C41.9204 18.3799 40.614 16.8976 40.614 14.6246C40.614 12.1681 42.1638 10.6858 44.2386 10.6858C45.0583 10.6858 45.6347 10.8693 45.8909 11.0246L45.6219 12.1117C45.3017 11.9564 44.8534 11.8293 44.2899 11.8293C42.9066 11.8293 41.9204 12.7893 41.9204 14.5823C41.9204 16.2199 42.7914 17.2787 44.2771 17.2787C44.7766 17.2787 45.3017 17.1658 45.6219 16.9964L45.8268 18.0411Z" fill="white"/>
<path d="M48.081 12.8754V15.106H48.2603L49.7716 12.8613H51.2317L49.2849 15.2472C49.9637 15.3602 50.3736 15.939 50.7066 16.8143C50.8603 17.2096 51.0396 17.8166 51.2573 18.2825H49.9766C49.8485 18.0566 49.7076 17.6472 49.5283 17.1249C49.2721 16.3907 48.9007 16.0378 48.2475 16.0378H48.081V18.2825H46.8386V12.8754H48.081Z" fill="white"/>
<path d="M54.7923 18.2685L54.7154 17.6756H54.6898C54.3824 18.0991 53.8701 18.3956 53.2425 18.3956C52.2563 18.3956 51.7056 17.605 51.7056 16.7862C51.7056 15.4168 52.807 14.7391 54.6129 14.7532V14.6685C54.6129 14.3156 54.4849 13.7227 53.6139 13.7227C53.1272 13.7227 52.6277 13.8921 52.2947 14.1179L52.0514 13.2285C52.41 12.9885 53.0504 12.7485 53.8189 12.7485C55.3814 12.7485 55.8425 13.8497 55.8425 15.0215V16.9697C55.8425 17.4638 55.8681 17.9297 55.9065 18.2685H54.7923ZM54.6258 15.6285C53.7548 15.6003 52.9223 15.8121 52.9223 16.6309C52.9223 17.1674 53.2297 17.4074 53.6267 17.4074C54.1134 17.4074 54.4849 17.0544 54.5873 16.6591C54.613 16.5603 54.6258 16.4474 54.6258 16.3627V15.6285Z" fill="white"/>
<path d="M58.1735 12.8757V14.5698C58.1735 15.2193 58.3784 15.5863 59.0316 15.5863C59.339 15.5863 59.6592 15.4593 59.8642 15.2899V12.8757H61.1065V18.2687H59.8642V16.1934H59.8385C59.5312 16.4193 59.0188 16.5604 58.5578 16.5604C57.5587 16.5604 56.9312 15.9675 56.9312 14.711V12.8757H58.1735Z" fill="white"/>
<path d="M63.5913 12.8757V14.8099C63.5913 15.6569 63.5657 16.2357 63.5273 16.9981H63.5529C63.809 16.3628 63.9627 15.9675 64.2189 15.4028L65.4228 12.8757H66.9213V18.2687H65.743V16.3346C65.743 15.4734 65.7686 15.0781 65.8199 14.0475H65.7814C65.5381 14.6969 65.3844 15.0781 65.1411 15.6004C64.7568 16.4051 64.3213 17.3793 63.8987 18.2546H62.4258V12.8757H63.5913Z" fill="white"/>
<path d="M68.2278 12.9459C68.5864 12.8753 69.3293 12.8188 70.0081 12.8188C70.8278 12.8188 72.3263 12.9459 72.3263 14.1883C72.3263 14.88 71.8396 15.2612 71.3273 15.3883V15.4165C72.0573 15.5435 72.5568 15.9812 72.5568 16.7294C72.5568 18.2118 70.7894 18.353 69.8031 18.353C69.1884 18.353 68.5352 18.3106 68.2406 18.2824V12.9459H68.2278ZM69.4189 17.4494C69.6238 17.4777 69.7647 17.4777 70.0209 17.4777C70.5844 17.4777 71.2632 17.3083 71.2632 16.673C71.2632 16.0659 70.7253 15.8683 69.944 15.8683H69.4189V17.4494ZM69.4317 15.0494H69.944C70.5716 15.0494 71.0967 14.8518 71.0967 14.3436C71.0967 13.9059 70.7509 13.68 70.0209 13.68C69.7775 13.68 69.6238 13.7083 69.4317 13.7224V15.0494Z" fill="white"/>
<path d="M76.3223 18.2685L76.2454 17.6756H76.2198C75.9124 18.0991 75.4001 18.3956 74.7725 18.3956C73.7863 18.3956 73.2356 17.605 73.2356 16.7862C73.2356 15.4168 74.3371 14.7391 76.143 14.7532V14.6685C76.143 14.3156 76.0149 13.7227 75.144 13.7227C74.6573 13.7227 74.1578 13.8921 73.8248 14.1179L73.5814 13.2285C73.94 12.9885 74.5804 12.7485 75.3489 12.7485C76.9115 12.7485 77.3725 13.8497 77.3725 15.0215V16.9697C77.3725 17.4638 77.3982 17.9297 77.4366 18.2685H76.3223ZM76.1686 15.6285C75.2977 15.6003 74.4652 15.8121 74.4652 16.6309C74.4652 17.1674 74.7725 17.4074 75.1696 17.4074C75.6563 17.4074 76.0277 17.0544 76.1302 16.6591C76.1558 16.5603 76.1686 16.4474 76.1686 16.3627V15.6285Z" fill="white"/>
<path d="M79.8445 12.8754V14.8096C79.8445 15.6566 79.8189 16.2354 79.7804 16.9978H79.806C80.0622 16.3625 80.2159 15.9672 80.4721 15.4025L81.676 12.8754H83.1745V18.2684H81.9962V16.3343C81.9962 15.4731 82.0218 15.0778 82.073 14.0472H82.0346C81.7913 14.6966 81.6376 15.0778 81.3942 15.6002C81.01 16.4049 80.5745 17.379 80.1519 18.2543H78.679V12.8754H79.8445ZM80.3568 10.6731C80.3824 11.1531 80.5617 11.4778 80.8947 11.4778C81.2533 11.4778 81.4327 11.139 81.4839 10.6731H82.3036C82.2524 11.6331 81.7144 12.1413 80.8819 12.1413C79.9726 12.1413 79.5755 11.5343 79.5371 10.6731H80.3568Z" fill="white"/>
<path d="M88.08 12.8754V13.9343H86.6071V18.2825H85.3648V13.9202H83.8918V12.8613H88.08V12.8754Z" fill="white"/>
<path d="M89.5528 15.9528C89.5785 16.9269 90.2829 17.3504 91.0642 17.3504C91.6405 17.3504 92.0504 17.2657 92.4218 17.1104L92.6011 18.0563C92.1784 18.2398 91.6021 18.3951 90.8977 18.3951C89.3095 18.3951 88.3745 17.3222 88.3745 15.6704C88.3745 14.174 89.1942 12.7622 90.7696 12.7622C92.3578 12.7622 92.8829 14.2022 92.8829 15.3881C92.8829 15.6422 92.8573 15.8398 92.8445 15.9669H89.5528V15.9528ZM91.7046 15.0069C91.7174 14.5128 91.5124 13.694 90.6927 13.694C89.9243 13.694 89.6041 14.4563 89.5528 15.0069H91.7046Z" fill="white"/>
<path d="M95.9438 12.9459C96.3025 12.8753 97.0453 12.8188 97.7241 12.8188C98.5439 12.8188 100.042 12.9459 100.042 14.1883C100.042 14.88 99.5557 15.2612 99.0434 15.3883V15.4165C99.7734 15.5435 100.273 15.9812 100.273 16.7294C100.273 18.2118 98.5054 18.353 97.5192 18.353C96.9044 18.353 96.2512 18.3106 95.9567 18.2824V12.9459H95.9438ZM97.135 17.4494C97.3399 17.4777 97.4808 17.4777 97.737 17.4777C98.3005 17.4777 98.9793 17.3083 98.9793 16.673C98.9793 16.0659 98.4414 15.8683 97.6601 15.8683H97.1222V17.4494H97.135ZM97.1478 15.0494H97.6601C98.2877 15.0494 98.8128 14.8518 98.8128 14.3436C98.8128 13.9059 98.467 13.68 97.737 13.68C97.4936 13.68 97.3399 13.7083 97.1478 13.7224V15.0494Z" fill="white"/>
</svg>
