<svg width="225" height="36" viewBox="0 0 225 36" fill="none" xmlns="http://www.w3.org/2000/svg">
<g clip-path="url(#clip0_46_1608)">
<path d="M23.9228 27.0913H26.5795V29.7018H15.9477C8.60777 29.7018 2.65796 23.8583 2.65796 16.6496C2.65796 9.44088 8.60777 3.59741 15.9477 3.59741C23.2876 3.59741 29.2374 9.44088 29.2374 16.6496C29.2391 18.676 28.7596 20.675 27.8371 22.4876C26.9145 24.3002 25.5743 25.8765 23.9228 27.0913ZM15.9477 14.0392C16.6526 14.0392 17.3287 13.7641 17.8271 13.2746C18.3256 12.785 18.6056 12.1211 18.6056 11.4287C18.6056 10.7364 18.3256 10.0724 17.8271 9.58287C17.3287 9.09331 16.6526 8.81829 15.9477 8.81829C15.2428 8.81829 14.5667 9.09331 14.0682 9.58287C13.5698 10.0724 13.2897 10.7364 13.2897 11.4287C13.2897 12.1211 13.5698 12.785 14.0682 13.2746C14.5667 13.7641 15.2428 14.0392 15.9477 14.0392ZM10.6318 19.26C11.3367 19.26 12.0128 18.985 12.5112 18.4955C13.0097 18.0059 13.2897 17.3419 13.2897 16.6496C13.2897 15.9573 13.0097 15.2933 12.5112 14.8037C12.0128 14.3142 11.3367 14.0392 10.6318 14.0392C9.92686 14.0392 9.2508 14.3142 8.75234 14.8037C8.25388 15.2933 7.97385 15.9573 7.97385 16.6496C7.97385 17.3419 8.25388 18.0059 8.75234 18.4955C9.2508 18.985 9.92686 19.26 10.6318 19.26ZM21.2636 19.26C21.9685 19.26 22.6446 18.985 23.143 18.4955C23.6415 18.0059 23.9215 17.3419 23.9215 16.6496C23.9215 15.9573 23.6415 15.2933 23.143 14.8037C22.6446 14.3142 21.9685 14.0392 21.2636 14.0392C20.5586 14.0392 19.8826 14.3142 19.3841 14.8037C18.8857 15.2933 18.6056 15.9573 18.6056 16.6496C18.6056 17.3419 18.8857 18.0059 19.3841 18.4955C19.8826 18.985 20.5586 19.26 21.2636 19.26ZM15.9477 24.4809C16.6526 24.4809 17.3287 24.2059 17.8271 23.7163C18.3256 23.2268 18.6056 22.5628 18.6056 21.8705C18.6056 21.1781 18.3256 20.5142 17.8271 20.0246C17.3287 19.5351 16.6526 19.26 15.9477 19.26C15.2428 19.26 14.5667 19.5351 14.0682 20.0246C13.5698 20.5142 13.2897 21.1781 13.2897 21.8705C13.2897 22.5628 13.5698 23.2268 14.0682 23.7163C14.5667 24.2059 15.2428 24.4809 15.9477 24.4809Z" fill="white"/>
</g>
<path d="M66.4732 26.4388H62.1631V17.6114C62.1631 16.0513 61.8302 14.841 61.1644 13.9806C60.5103 13.1088 59.5817 12.6729 58.3787 12.6729C57.1639 12.6729 56.2119 13.1088 55.5228 13.9806C54.8453 14.8525 54.5066 16.0627 54.5066 17.6114V26.4388H50.1965V17.6114C50.1965 16.0513 49.8636 14.841 49.1978 13.9806C48.5321 13.1088 47.6035 12.6729 46.4121 12.6729C45.1856 12.6729 44.2278 13.1088 43.5387 13.9806C42.8612 14.8525 42.5225 16.0627 42.5225 17.6114V26.4388H38.2124V9.23136H41.664L41.8217 12.1566C42.4174 11.0898 43.2058 10.281 44.1869 9.73038C45.1798 9.16827 46.3478 8.88721 47.6911 8.88721C49.081 8.88721 50.2783 9.18547 51.2828 9.782C52.299 10.3671 53.0757 11.2102 53.613 12.3115C54.1971 11.1873 54.9972 10.3384 56.0134 9.76479C57.0296 9.17974 58.2268 8.88721 59.6051 8.88721C61.766 8.88721 63.448 9.56404 64.651 10.9177C65.8658 12.2599 66.4732 14.1298 66.4732 16.5273V26.4388Z" fill="white"/>
<path d="M78.9479 26.783C77.1608 26.783 75.5606 26.3929 74.1472 25.6129C72.7456 24.8328 71.6359 23.7717 70.8183 22.4295C70.0124 21.0758 69.6094 19.5444 69.6094 17.8351C69.6094 16.1258 70.0124 14.6001 70.8183 13.2579C71.6359 11.9043 72.7456 10.8374 74.1472 10.0573C75.5606 9.27725 77.1608 8.88721 78.9479 8.88721C80.7233 8.88721 82.3118 9.27725 83.7135 10.0573C85.1151 10.8374 86.2131 11.9043 87.0074 13.2579C87.8133 14.6001 88.2163 16.1258 88.2163 17.8351C88.2163 19.5444 87.8133 21.0758 87.0074 22.4295C86.2131 23.7717 85.1151 24.8328 83.7135 25.6129C82.3118 26.3929 80.7233 26.783 78.9479 26.783ZM78.9128 22.9801C79.8473 22.9801 80.6824 22.7564 81.4183 22.309C82.1542 21.8616 82.7323 21.2479 83.1528 20.4678C83.585 19.6878 83.8011 18.8045 83.8011 17.8179C83.8011 16.8428 83.585 15.971 83.1528 15.2024C82.7323 14.4223 82.1542 13.8085 81.4183 13.3612C80.6824 12.9138 79.8473 12.6901 78.9128 12.6901C77.9901 12.6901 77.1549 12.9138 76.4074 13.3612C75.6715 13.8085 75.0875 14.4223 74.6553 15.2024C74.2348 15.971 74.0246 16.8428 74.0246 17.8179C74.0246 18.8045 74.2348 19.6878 74.6553 20.4678C75.0875 21.2479 75.6715 21.8616 76.4074 22.309C77.1549 22.7564 77.9901 22.9801 78.9128 22.9801Z" fill="white"/>
<path d="M108.383 9.23136L101.147 26.4388H96.9766L89.7581 9.23136H94.3836L99.0791 22.137L103.792 9.23136H108.383Z" fill="white"/>
<path d="M113.849 4.67138C113.242 4.67138 112.728 4.46489 112.307 4.05191C111.898 3.62746 111.694 3.11697 111.694 2.52045C111.694 1.93539 111.898 1.43637 112.307 1.0234C112.728 0.598944 113.242 0.386719 113.849 0.386719C114.468 0.386719 114.988 0.598944 115.408 1.0234C115.829 1.43637 116.039 1.93539 116.039 2.52045C116.039 3.11697 115.829 3.62746 115.408 4.05191C114.988 4.46489 114.468 4.67138 113.849 4.67138ZM116.004 26.4388H111.694V9.23136H116.004V26.4388Z" fill="white"/>
<path d="M136.626 24.4428C134.442 26.0029 132.053 26.783 129.46 26.783C127.579 26.783 125.892 26.3815 124.396 25.5785C122.901 24.7754 121.716 23.6799 120.84 22.2918C119.975 20.8923 119.543 19.3207 119.543 17.577C119.543 15.9136 119.934 14.428 120.717 13.1202C121.511 11.8125 122.592 10.78 123.958 10.0229C125.337 9.26577 126.89 8.88721 128.619 8.88721C130.418 8.88721 131.995 9.30593 133.349 10.1434C134.716 10.9693 135.779 12.1222 136.538 13.6021C137.297 15.0704 137.677 16.7797 137.677 18.7299V19.2805H124.186C124.396 20.0606 124.764 20.7489 125.29 21.3454C125.827 21.9419 126.493 22.4065 127.287 22.7392C128.082 23.0719 128.975 23.2382 129.968 23.2382C131.837 23.2382 133.566 22.6417 135.154 21.4487L136.626 24.4428ZM124.011 16.8026H133.682C133.589 15.9423 133.32 15.1909 132.876 14.5485C132.444 13.9061 131.878 13.407 131.177 13.0514C130.488 12.6843 129.711 12.5008 128.847 12.5008C127.971 12.5008 127.188 12.6843 126.499 13.0514C125.81 13.4185 125.249 13.929 124.817 14.5829C124.385 15.2253 124.116 15.9652 124.011 16.8026Z" fill="white"/>
<path d="M148.435 26.5765C146.811 26.5765 145.363 26.1922 144.09 25.4236C142.816 24.655 141.812 23.6053 141.076 22.2746C140.34 20.9324 139.972 19.4182 139.972 17.7319C139.972 16.034 140.34 14.5198 141.076 13.1891C141.812 11.8584 142.816 10.8087 144.09 10.0401C145.363 9.27151 146.811 8.88721 148.435 8.88721C149.708 8.88721 150.882 9.12811 151.956 9.60992C153.031 10.0917 153.942 10.7628 154.69 11.6232L154.9 9.23136H158.684V25.9742C158.684 27.8785 158.27 29.5362 157.44 30.9472C156.623 32.3582 155.466 33.448 153.971 34.2166C152.476 34.9967 150.707 35.3867 148.662 35.3867C145.824 35.3867 143.284 34.4977 141.041 32.7196L142.811 29.2609C144.376 30.8095 146.233 31.5839 148.382 31.5839C149.597 31.5839 150.648 31.343 151.536 30.8612C152.435 30.3908 153.13 29.7197 153.621 28.8479C154.123 27.9875 154.374 26.978 154.374 25.8194V24.1674C153.627 24.9246 152.745 25.5154 151.729 25.9398C150.712 26.3643 149.614 26.5765 148.435 26.5765ZM149.381 22.8081C150.304 22.8081 151.139 22.6073 151.886 22.2058C152.646 21.7928 153.247 21.2307 153.691 20.5195C154.146 19.8082 154.374 18.9995 154.374 18.0932V17.3361C154.374 16.4298 154.146 15.6268 153.691 14.927C153.247 14.2273 152.646 13.6766 151.886 13.2751C151.127 12.8621 150.292 12.6556 149.381 12.6556C148.423 12.6556 147.565 12.8793 146.805 13.3267C146.046 13.7627 145.445 14.3649 145.001 15.1335C144.569 15.9021 144.352 16.7682 144.352 17.7319C144.352 18.6955 144.569 19.5616 145.001 20.3302C145.445 21.0988 146.046 21.7068 146.805 22.1542C147.565 22.5901 148.423 22.8081 149.381 22.8081Z" fill="white"/>
<path d="M167.48 26.4388H163.17V9.23136H166.919L167.077 12.3631C167.684 11.2618 168.502 10.4072 169.53 9.79921C170.569 9.19121 171.761 8.88721 173.104 8.88721C173.454 8.88721 173.81 8.91015 174.173 8.95604C174.546 9.00193 174.914 9.07076 175.276 9.16253L174.751 12.9826C174.027 12.7761 173.326 12.6729 172.648 12.6729C171.62 12.6729 170.715 12.908 169.933 13.3784C169.162 13.8487 168.56 14.5026 168.128 15.34C167.696 16.166 167.48 17.1296 167.48 18.2309V26.4388Z" fill="white"/>
<path d="M192.429 26.4388H188.68L188.434 24.3223C187.792 25.1024 186.992 25.7104 186.034 26.1463C185.076 26.5708 184.013 26.783 182.845 26.783C181.607 26.783 180.503 26.5478 179.534 26.0775C178.564 25.5957 177.799 24.9418 177.239 24.1158C176.69 23.2899 176.415 22.3492 176.415 21.2938C176.415 20.181 176.713 19.206 177.309 18.3685C177.916 17.5196 178.74 16.8543 179.779 16.3725C180.83 15.8907 182.028 15.6497 183.371 15.6497C184.188 15.6497 185.006 15.7415 185.824 15.9251C186.653 16.1086 187.418 16.3667 188.119 16.6994V16.1488C188.119 15.3916 187.909 14.7378 187.488 14.1871C187.068 13.6365 186.501 13.212 185.789 12.9138C185.076 12.604 184.276 12.4492 183.388 12.4492C182.582 12.4492 181.776 12.5868 180.971 12.8621C180.165 13.126 179.411 13.5218 178.71 14.0495L177.484 10.7284C178.605 10.1204 179.75 9.66155 180.918 9.35181C182.098 9.04208 183.248 8.88721 184.37 8.88721C186.016 8.88721 187.441 9.20842 188.645 9.85083C189.848 10.4818 190.776 11.388 191.43 12.5696C192.096 13.7397 192.429 15.1221 192.429 16.7166V26.4388ZM183.739 23.3759C184.498 23.3759 185.199 23.221 185.841 22.9113C186.495 22.6016 187.027 22.1714 187.436 21.6207C187.856 21.0586 188.078 20.4162 188.101 19.6935V19.5042C187.552 19.1142 186.933 18.8159 186.244 18.6094C185.555 18.3915 184.86 18.2825 184.159 18.2825C183.085 18.2825 182.203 18.5234 181.514 19.0052C180.825 19.4755 180.48 20.095 180.48 20.8636C180.48 21.334 180.62 21.7641 180.9 22.1542C181.181 22.5327 181.566 22.831 182.057 23.049C182.559 23.2669 183.12 23.3759 183.739 23.3759Z" fill="white"/>
<path d="M225 26.4388H220.69V17.6114C220.69 16.0513 220.357 14.841 219.691 13.9806C219.037 13.1088 218.108 12.6729 216.905 12.6729C215.691 12.6729 214.739 13.1088 214.049 13.9806C213.372 14.8525 213.033 16.0627 213.033 17.6114V26.4388H208.723V17.6114C208.723 16.0513 208.39 14.841 207.725 13.9806C207.059 13.1088 206.13 12.6729 204.939 12.6729C203.712 12.6729 202.755 13.1088 202.065 13.9806C201.388 14.8525 201.049 16.0627 201.049 17.6114V26.4388H196.739V9.23136H200.191L200.348 12.1566C200.944 11.0898 201.732 10.281 202.714 9.73038C203.706 9.16827 204.875 8.88721 206.218 8.88721C207.608 8.88721 208.805 9.18547 209.81 9.782C210.826 10.3671 211.602 11.2102 212.14 12.3115C212.724 11.1873 213.524 10.3384 214.54 9.76479C215.556 9.17974 216.754 8.88721 218.132 8.88721C220.293 8.88721 221.975 9.56404 223.178 10.9177C224.393 12.2599 225 14.1298 225 16.5273V26.4388Z" fill="white"/>
<defs>
<clipPath id="clip0_46_1608">
<rect width="31.8953" height="31.3252" fill="white" transform="translate(0 0.987061)"/>
</clipPath>
</defs>
</svg>
